HIERARCHY
ROOT Hips
{
	OFFSET -32.860001 56.121803 44.745396
	CHANNELS 6 Xposition Yposition Zposition Zrotation Xrotation Yrotation
	JOINT Chest
	{
		OFFSET -0.637402 0.831600 5.390099
		CHANNELS 6 Xposition Yposition Zposition Zrotation Xrotation Yrotation
		JOINT Chest2
		{
			OFFSET 0.000000 0.000000 4.429901
			CHANNELS 6 Xposition Yposition Zposition Zrotation Xrotation Yrotation
			JOINT Neck
			{
				OFFSET 0.000000 0.000000 10.301395
				CHANNELS 6 Xposition Yposition Zposition Zrotation Xrotation Yrotation
				JOINT Head
				{
					OFFSET 0.000000 0.000000 2.173897
					CHANNELS 6 Xposition Yposition Zposition Zrotation Xrotation Yrotation
					End Site
					{
						OFFSET 0.000000 0.000000 8.298004
					}
				}
			}
			JOINT LeftCollar
			{
				OFFSET 2.142401 -0.572701 5.717800
				CHANNELS 6 Xposition Yposition Zposition Zrotation Xrotation Yrotation
				JOINT LeftShoulder
				{
					OFFSET 5.674000 0.000000 0.000000
					CHANNELS 6 Xposition Yposition Zposition Zrotation Xrotation Yrotation
					JOINT LeftElbow
					{
						OFFSET 0.000000 0.000000 -12.238701
						CHANNELS 6 Xposition Yposition Zposition Zrotation Xrotation Yrotation
						JOINT LeftWrist
						{
							OFFSET 0.000000 0.000000 -10.253700
							CHANNELS 6 Xposition Yposition Zposition Zrotation Xrotation Yrotation
							End Site
							{
								OFFSET 0.000000 0.000000 -2.173901
							}
						}
					}
				}
			}
			JOINT RightCollar
			{
				OFFSET -2.882599 -1.580101 6.695801
				CHANNELS 6 Xposition Yposition Zposition Zrotation Xrotation Yrotation
				JOINT RightShoulder
				{
					OFFSET -4.235600 0.000000 0.000000
					CHANNELS 6 Xposition Yposition Zposition Zrotation Xrotation Yrotation
					JOINT RightElbow
					{
						OFFSET 0.000000 0.000000 -10.709900
						CHANNELS 6 Xposition Yposition Zposition Zrotation Xrotation Yrotation
						JOINT RightWrist
						{
							OFFSET 0.000000 0.000000 -11.716801
							CHANNELS 6 Xposition Yposition Zposition Zrotation Xrotation Yrotation
							End Site
							{
								OFFSET 0.000000 0.000000 -2.173901
							}
						}
					}
				}
			}
		}
	}
	JOINT LeftHip
	{
		OFFSET 2.279499 0.210400 -2.475502
		CHANNELS 6 Xposition Yposition Zposition Zrotation Xrotation Yrotation
		JOINT LeftKnee
		{
			OFFSET 0.000000 -0.000004 -20.742800
			CHANNELS 6 Xposition Yposition Zposition Zrotation Xrotation Yrotation
			JOINT LeftAnkle
			{
				OFFSET 0.000000 0.000000 -16.666000
				CHANNELS 6 Xposition Yposition Zposition Zrotation Xrotation Yrotation
				End Site
				{
					OFFSET 0.000000 -8.310898 0.000000
				}
			}
		}
	}
	JOINT RightHip
	{
		OFFSET -1.961899 0.232300 -2.727402
		CHANNELS 6 Xposition Yposition Zposition Zrotation Xrotation Yrotation
		JOINT RightKnee
		{
			OFFSET 0.000000 -0.000004 -20.526800
			CHANNELS 6 Xposition Yposition Zposition Zrotation Xrotation Yrotation
			JOINT RightAnkle
			{
				OFFSET 0.000000 0.000000 -16.867300
				CHANNELS 6 Xposition Yposition Zposition Zrotation Xrotation Yrotation
				End Site
				{
					OFFSET 0.000000 -7.186401 0.000000
				}
			}
		}
	}
}
MOTION
Frames: 7
Frame Time: 0.041667
59.581009 87.733414 45.486988 1614.618689 4.240362 4.853773 -0.637401 0.831614 5.390088 5.693161 8.709205 1.059764 -0.000009 -0.000005 4.429907 0.772327 -0.673466 0.438888 0.000007 -0.000004 10.301394 382.916306 31.225900 -5.392572 -0.000006 -0.000005 2.173912 -357.854784 6.679435 2.400832 2.142404 -0.572693 5.717794 10.130735 -5.432229 -14.219991 5.674000 -0.000004 -0.000011 351.278050 -711.049795 -74.594654 0.000002 0.000002 -12.238701 -881.584373 189.558882 -175.195869 -0.000001 0.000012 -10.253700 -272.197464 9.215289 9.271716 -2.882602 -1.580086 6.695787 -1.511431 -7.795878 16.657812 -4.235600 0.000010 0.000002 -1076.094883 0.272251 -652.403277 0.000003 -0.000003 -10.709904 173.335858 -162.444807 169.403458 0.000008 -0.000015 -11.716788 -1007.335970 10.954046 26.488676 2.279499 0.210413 -2.475503 386.998901 -20.738573 1.063111 -0.000001 0.000005 -20.742796 -372.822843 29.068561 -6.439204 -0.000007 0.000002 -16.665998 340.583831 26.147989 12.996323 -1.961893 0.232308 -2.727407 -1077.966246 5.311970 16.542488 -0.000004 -0.000002 -20.526791 883.181654 153.772338 -185.939838 0.000003 0.000008 -16.867302 19.370261 58.865671 -28.045353
59.639915 87.700302 45.492096 1614.357503 4.600014 4.650409 -0.637413 0.831600 5.390101 5.890087 8.288734 1.159151 0.000002 -0.000003 4.429912 0.272150 -0.614433 0.397201 0.000005 0.000001 10.301392 383.644240 31.345575 -5.127789 -0.000008 -0.000006 2.173906 -358.299184 6.452994 2.356450 2.142402 -0.572694 5.717795 10.207963 -5.803284 -14.220916 5.673995 -0.000000 0.000003 351.448559 -711.156947 -74.345318 0.000006 -0.000006 -12.238696 -882.102102 189.603415 -175.252245 -0.000002 0.000002 -10.253696 -271.135342 9.275150 8.007009 -2.882598 -1.580091 6.695791 -1.083194 -7.619678 17.697187 -4.235603 0.000006 -0.000001 -1076.179687 0.177618 -652.975865 0.000000 -0.000012 -10.709913 173.150951 -162.499927 169.502455 0.000001 -0.000007 -11.716793 -1007.349084 10.961852 26.525975 2.279487 0.210396 -2.475491 387.181540 -20.960273 1.359323 0.000004 -0.000012 -20.742798 -372.910324 28.999685 -6.403252 0.000002 0.000010 -16.665998 340.934794 26.193127 12.812083 -1.961905 0.232299 -2.727395 -1077.432289 5.395224 16.502932 0.000004 -0.000008 -20.526804 883.087124 154.278305 -186.138433 -0.000007 0.000001 -16.867306 17.730642 58.281383 -26.905934
59.696014 87.665207 45.494392 1614.274229 4.929716 4.444430 -0.637401 0.831592 5.390085 5.924221 7.912324 1.153777 -0.000005 -0.000000 4.429904 -0.233831 -0.517052 0.328379 0.000002 -0.000011 10.301401 383.633421 31.540970 -4.513716 -0.000005 -0.000003 2.173916 -358.591161 6.323797 2.483672 2.142402 -0.572711 5.717793 10.575844 -6.909457 -14.577581 5.674007 0.000006 0.000000 350.992083 -710.204381 -73.294015 0.000014 -0.000009 -12.238701 -882.165049 189.163237 -175.321039 0.000007 0.000012 -10.253701 -271.300086 8.764827 8.228161 -2.882599 -1.580091 6.695791 -0.615747 -7.294115 19.219937 -4.235604 0.000005 -0.000004 -1076.211051 -0.236310 -653.937993 0.000003 0.000004 -10.709909 173.046394 -162.898031 169.704355 -0.000004 0.000010 -11.716789 -1007.311818 10.955562 26.523592 2.279493 0.210398 -2.475510 387.110315 -21.177818 1.691423 -0.000011 0.000005 -20.742804 -372.370193 28.924728 -6.765366 -0.000006 0.000002 -16.666004 340.669536 26.220890 12.900395 -1.961896 0.232297 -2.727412 -1077.160065 5.464477 16.479042 -0.000011 0.000006 -20.526802 883.242142 154.685207 -186.350046 -0.000011 -0.000001 -16.867294 16.224720 57.606232 -25.950363
59.758904 87.623604 45.498486 1614.007141 5.170287 4.199799 -0.637409 0.831601 5.390103 6.138421 7.697851 1.356298 -0.000001 0.000004 4.429918 -0.586000 -0.482049 0.343477 -0.000004 0.000004 10.301403 383.715438 31.614309 -4.333837 -0.000005 -0.000003 2.173895 -358.639873 6.293153 2.345152 2.142394 -0.572690 5.717807 10.719192 -6.578893 -14.366910 5.673995 0.000008 0.000003 351.100465 -710.465295 -73.345904 0.000007 -0.000004 -12.238701 -882.087950 189.243942 -175.408793 -0.000001 0.000003 -10.253703 -271.177143 8.884839 7.851816 -2.882608 -1.580087 6.695797 -0.477594 -7.696546 19.505750 -4.235589 0.000004 -0.000021 -1076.076086 0.276193 -653.848600 -0.000008 0.000005 -10.709903 172.759608 -162.882622 169.626437 -0.000010 -0.000001 -11.716786 -1007.312146 11.017163 26.454240 2.279489 0.210404 -2.475495 387.134822 -21.310764 1.935766 -0.000000 -0.000012 -20.742798 -373.446685 29.162654 -6.218322 0.000001 -0.000001 -16.665997 342.352249 26.035332 12.174688 -1.961899 0.232302 -2.727386 -1076.949148 5.443147 16.544035 -0.000004 0.000007 -20.526800 882.504591 155.069678 -186.081947 0.000004 0.000004 -16.867298 15.906394 57.234923 -25.276256
59.833900 87.583099 45.506092 1613.701805 5.333464 3.738766 -0.637399 0.831582 5.390100 6.379007 7.491021 1.559669 -0.000007 0.000011 4.429899 -1.175127 -0.393344 0.270883 0.000006 -0.000006 10.301385 384.029189 31.933511 -3.919611 -0.000005 -0.000002 2.173899 -358.904584 6.061842 2.249945 2.142404 -0.572710 5.717787 10.848374 -7.454256 -14.610765 5.674013 0.000005 -0.000009 351.447821 -709.966691 -72.508209 -0.000004 -0.000004 -12.238693 -882.555080 189.558431 -175.384696 0.000002 0.000006 -10.253693 -271.114660 8.974649 7.711297 -2.882601 -1.580102 6.695785 0.110325 -7.346601 20.930544 -4.235606 0.000008 -0.000009 -1076.125154 -0.238688 -654.600139 0.000008 0.000008 -10.709909 172.745019 -163.223326 169.738793 -0.000014 0.000001 -11.716797 -1007.209857 11.078428 26.328984 2.279504 0.210400 -2.475501 387.677002 -21.345436 2.419178 -0.000007 0.000002 -20.742798 -374.321769 29.387084 -5.852380 -0.000003 0.000005 -16.665998 343.208673 25.863700 11.902941 -1.961897 0.232291 -2.727400 -1076.047017 5.977994 16.692596 0.000004 0.000009 -20.526802 882.885060 155.818021 -186.568803 -0.000002 -0.000007 -16.867300 13.791022 56.528582 -24.336685
59.921700 87.545204 45.505890 1613.392315 5.754461 3.558911 -0.637406 0.831627 5.390091 6.661175 7.030535 1.275292 -0.000001 -0.000006 4.429897 -1.974866 -0.283736 0.083271 -0.000004 -0.000016 10.301399 384.398129 32.374793 -3.032894 -0.000005 0.000001 2.173895 -359.276994 6.025144 2.176203 2.142395 -0.572708 5.717809 11.389500 -10.791113 -15.817050 5.674013 -0.000010 0.000003 351.183493 -708.325587 -69.962092 0.000010 0.000000 -12.238694 -884.130067 190.003555 -175.369738 0.000001 0.000006 -10.253695 -270.948386 9.072484 7.222201 -2.882605 -1.580107 6.695802 0.607547 -6.658823 23.316500 -4.235602 0.000003 -0.000004 -1075.850417 -0.668771 -656.030435 0.000001 -0.000003 -10.709909 172.107940 -163.350736 169.961498 -0.000003 -0.000004 -11.716785 -1007.174668 11.065800 26.352955 2.279490 0.210429 -2.475506 388.376168 -21.748687 2.624267 0.000003 0.000002 -20.742792 -375.018913 29.404378 -5.257582 0.000001 0.000013 -16.666000 343.573460 25.917059 11.667853 -1.961904 0.232324 -2.727408 -1076.579225 5.431971 16.714173 0.000004 0.000014 -20.526798 883.271266 155.917960 -186.291757 -0.000006 -0.000003 -16.867302 13.128069 55.809681 -23.431259
60.005699 87.496811 45.510391 1613.176590 6.075601 3.359705 -0.637408 0.831614 5.390109 6.837434 6.791051 1.389547 -0.000005 0.000002 4.429894 -2.485942 -0.302554 0.061535 0.000010 0.000005 10.301392 384.867472 32.571997 -3.202432 0.000002 0.000002 2.173906 -359.736966 6.028385 2.348352 2.142403 -0.572697 5.717795 11.847101 -10.836754 -15.434988 5.673998 -0.000002 0.000007 351.117977 -708.082925 -70.033673 -0.000006 -0.000005 -12.238691 -883.931937 189.899353 -175.331817 0.000005 0.000001 -10.253692 -271.388961 8.623313 7.745865 -2.882602 -1.580079 6.695787 0.735524 -6.634979 23.457091 -4.235614 -0.000003 -0.000002 -1075.479073 -0.568164 -655.653136 0.000012 0.000004 -10.709916 171.684741 -163.477012 169.880083 -0.000006 -0.000006 -11.716802 -1007.128660 11.058343 26.294615 2.279492 0.210411 -2.475491 388.551485 -22.009386 2.643813 -0.000011 -0.000006 -20.742800 -375.844765 29.420271 -4.483214 0.000001 0.000001 -16.666000 344.311749 25.851008 11.589099 -1.961900 0.232307 -2.727387 -1077.142907 4.907881 16.724230 0.000003 0.000004 -20.526794 883.229903 155.859972 -185.776911 -0.000015 -0.000005 -16.867302 13.316472 54.949944 -23.188226
